<svg width="139" height="31" viewBox="0 0 139 31" fill="none" xmlns="http://www.w3.org/2000/svg">
<path d="M0.628 0.267998H4.852L13.388 23.016L18.8 7.66H20.78L27.292 23.852L35.388 0.267998H38.952L28.436 30.056H25.532L19.768 14.964L13.872 30.056H11.364L0.628 0.267998ZM40.537 24.248V17.34C40.537 13.952 42.957 11.4 46.169 11.4H47.929C50.437 11.4 52.197 11.972 53.385 14.084V10.74H56.333V22.576C56.333 25.392 57.301 28.032 58.797 30.32H55.893L54.265 27.064C53.649 28.78 51.449 30.012 49.469 30.012H45.641C42.957 30.012 40.537 27.812 40.537 24.248ZM43.133 17.78V23.588C43.133 25.436 43.661 28.208 47.137 28.208H48.369C50.833 28.208 52.769 26.932 52.769 23.676V18.572C52.769 15.184 50.481 13.248 48.105 13.248H47.181C45.113 13.248 43.133 14.656 43.133 17.78ZM61.2978 10.696H64.6418L70.8018 25.436L74.6298 16.02L72.6498 10.696H75.1578L80.7458 24.556L86.7738 10.696H90.7338C87.9618 17.296 84.8818 23.72 82.4178 30.1H80.1298L76.2578 20.156L72.0338 30.1H69.4378C66.8418 23.676 63.8938 16.856 61.2978 10.696ZM93.7578 23.544V17.164C93.7578 13.116 97.0578 10.608 100.754 10.608H103.482C106.914 10.608 110.214 13.336 110.214 17.296V20.816H96.6178V22.84C96.6178 24.6 96.6178 28.208 101.458 28.208H103.702C106.562 28.208 107.97 26.668 107.97 24.072H110.61V24.6C110.61 28.208 108.102 30.056 104.098 30.056H99.7858C96.4858 30.056 93.7578 27.68 93.7578 23.544ZM96.6178 19.276H107.53V17.736C107.53 14.612 105.462 12.764 102.734 12.764H101.238C98.5098 12.764 96.6178 14.612 96.6178 17.736V19.276ZM113.381 30.056L123.413 14.788L113.953 0.312H119.101L126.185 11.532L133.313 0.312H137.361L128.341 14.084L138.681 30.056H133.445L125.569 17.956L117.737 30.056H113.381Z" fill="white"/>
</svg>
