<svg width="48" height="49" viewBox="0 0 48 49" fill="none" xmlns="http://www.w3.org/2000/svg">
<path d="M6.0064 32.4531H30.8464C31.2585 32.4538 31.6587 32.3143 31.981 32.0575C32.3034 31.8007 32.5289 31.4418 32.6204 31.04L36.803 12.8178C36.8641 12.5516 36.8645 12.275 36.804 12.0087C36.7436 11.7423 36.6238 11.4931 36.4537 11.2794C36.2835 11.0658 36.0674 10.8932 35.8213 10.7746C35.5753 10.656 35.3057 10.5945 35.0326 10.5945H1.82019C1.54676 10.5939 1.27673 10.6551 1.03024 10.7734C0.783744 10.8918 0.567153 11.0643 0.396612 11.278C0.226071 11.4917 0.105983 11.7412 0.0453041 12.0078C-0.0153748 12.2744 -0.0150804 12.5513 0.0461688 12.8178L4.23601 31.04C4.32738 31.4412 4.55229 31.7996 4.87393 32.0563C5.19557 32.3131 5.59486 32.453 6.0064 32.4531ZM29.4005 28.8203H7.45226L4.1016 14.2309H32.7524L29.4005 28.8203Z" fill="#022501"/>
<path d="M27.2923 48.6797C28.669 48.6797 30.0147 48.2715 31.1594 47.5066C32.304 46.7418 33.1961 45.6547 33.723 44.3829C34.2498 43.111 34.3876 41.7115 34.1191 40.3613C33.8505 39.0111 33.1876 37.7709 32.2141 36.7974C31.2407 35.824 30.0005 35.1611 28.6503 34.8925C27.3001 34.6239 25.9005 34.7618 24.6287 35.2886C23.3568 35.8154 22.2697 36.7075 21.5049 37.8522C20.7401 38.9968 20.3319 40.3426 20.3319 41.7192C20.3338 43.5647 21.0677 45.334 22.3727 46.6389C23.6776 47.9438 25.4469 48.6778 27.2923 48.6797ZM27.2923 38.3928C27.9505 38.3928 28.594 38.588 29.1412 38.9537C29.6885 39.3194 30.115 39.8391 30.3668 40.4473C30.6186 41.0554 30.6845 41.7245 30.556 42.3701C30.4275 43.0156 30.1104 43.6085 29.6449 44.0739C29.1794 44.5392 28.5864 44.856 27.9408 44.9843C27.2952 45.1125 26.6261 45.0465 26.0181 44.7944C25.41 44.5424 24.8904 44.1157 24.5249 43.5683C24.1594 43.0209 23.9644 42.3774 23.9647 41.7192C23.9656 40.8371 24.3166 39.9914 24.9405 39.3677C25.5643 38.744 26.4102 38.3934 27.2923 38.3928Z" fill="#022501"/>
<path d="M9.56174 48.6797C10.9384 48.6797 12.2841 48.2715 13.4288 47.5066C14.5734 46.7418 15.4656 45.6547 15.9924 44.3829C16.5192 43.111 16.657 41.7115 16.3885 40.3613C16.1199 39.0111 15.457 37.7709 14.4835 36.7974C13.5101 35.824 12.2699 35.1611 10.9197 34.8925C9.56947 34.6239 8.16995 34.7618 6.89809 35.2886C5.62623 35.8154 4.53915 36.7075 3.77433 37.8522C3.0095 38.9968 2.60128 40.3426 2.60128 41.7192C2.6032 43.5647 3.33715 45.334 4.64207 46.6389C5.947 47.9438 7.7163 48.6778 9.56174 48.6797ZM9.56174 38.3928C10.2199 38.3928 10.8634 38.588 11.4106 38.9537C11.9579 39.3194 12.3844 39.8391 12.6362 40.4473C12.888 41.0554 12.9539 41.7245 12.8254 42.3701C12.6969 43.0156 12.3798 43.6085 11.9143 44.0739C11.4488 44.5392 10.8558 44.856 10.2102 44.9843C9.56461 45.1125 8.89549 45.0465 8.28746 44.7944C7.67944 44.5424 7.15981 44.1157 6.79431 43.5683C6.42881 43.0209 6.23385 42.3774 6.23409 41.7192C6.23505 40.8371 6.58599 39.9914 7.20987 39.3677C7.83375 38.744 8.6796 38.3934 9.56174 38.3928Z" fill="#022501"/>
<path d="M35.0326 14.2273C35.4139 14.2273 35.7855 14.1073 36.0947 13.8843C36.404 13.6613 36.6353 13.3466 36.7558 12.9849L39.8691 3.63281H45.6138C46.0955 3.63281 46.5575 3.44144 46.8982 3.1008C47.2388 2.76016 47.4302 2.29815 47.4302 1.81641C47.4302 1.33467 47.2388 0.872655 46.8982 0.532013C46.5575 0.191371 46.0955 0 45.6138 0H38.554C38.1727 3.52775e-05 37.8011 0.120049 37.4919 0.343037C37.1826 0.566026 36.9513 0.880681 36.8308 1.24242L33.3034 11.8369C33.2124 12.1099 33.1877 12.4006 33.2311 12.6851C33.2746 12.9696 33.385 13.2396 33.5532 13.4731C33.7215 13.7065 33.9428 13.8966 34.199 14.0278C34.4551 14.1589 34.7388 14.2273 35.0265 14.2273H35.0326Z" fill="#022501"/>
</svg>
