<svg width="25" height="25" viewBox="0 0 25 25" fill="none" xmlns="http://www.w3.org/2000/svg">
<path d="M7.49794 20C6.12331 20 5.01112 21.125 5.01112 22.5C5.01112 23.875 6.12331 25 7.49794 25C8.87256 25 9.99725 23.875 9.99725 22.5C9.99725 21.125 8.87256 20 7.49794 20ZM19.9945 20C18.6199 20 17.5077 21.125 17.5077 22.5C17.5077 23.875 18.6199 25 19.9945 25C21.3691 25 22.4938 23.875 22.4938 22.5C22.4938 21.125 21.3691 20 19.9945 20ZM18.1825 13.75C19.1197 13.75 19.9445 13.2375 20.3694 12.4625L24.8432 4.35C24.9485 4.16053 25.0025 3.94684 24.9999 3.73007C24.9973 3.5133 24.9382 3.30096 24.8283 3.11408C24.7185 2.92719 24.5618 2.77223 24.3737 2.66452C24.1856 2.55682 23.9727 2.50011 23.756 2.5H5.26105L4.08637 0H0V2.5H2.49931L6.99807 11.9875L5.31104 15.0375C4.39879 16.7125 5.59846 18.75 7.49794 18.75H22.4938V16.25H7.49794L8.87256 13.75H18.1825ZM6.44822 5H21.6315L18.1825 11.25H9.40991L6.44822 5Z" fill="black"/>
</svg>
