<svg width="41" height="26" viewBox="0 0 41 26" fill="none" xmlns="http://www.w3.org/2000/svg">
<g clip-path="url(#clip0_84_647)">
<path fill-rule="evenodd" clip-rule="evenodd" d="M20.6221 22.57C22.7351 24.614 25.5521 25.84 28.6351 25.84C35.2401 25.84 40.5821 20.17 40.5821 13.197C40.5821 6.19795 35.2401 0.553955 28.6351 0.553955C25.5511 0.553955 22.7351 1.77996 20.6221 3.82296C19.3713 5.04727 18.3787 6.50994 17.703 8.1245C17.0273 9.73906 16.6822 11.4727 16.6881 13.223C16.6881 16.926 18.2181 20.272 20.6221 22.57Z" fill="#FCB131"/>
<path fill-rule="evenodd" clip-rule="evenodd" d="M39.0039 20.246C39.0039 20.042 39.1739 19.863 39.3679 19.863C39.5859 19.863 39.7559 20.042 39.7559 20.246C39.7559 20.476 39.5859 20.655 39.3679 20.655C39.1489 20.655 39.0039 20.476 39.0039 20.246ZM39.3679 20.578C39.5379 20.578 39.6839 20.425 39.6839 20.246C39.6838 20.205 39.6755 20.1644 39.6594 20.1266C39.6434 20.0888 39.62 20.0546 39.5905 20.026C39.5611 19.9974 39.5262 19.975 39.488 19.9601C39.4498 19.9451 39.4089 19.938 39.3679 19.939C39.2889 19.9422 39.2143 19.976 39.16 20.0334C39.1056 20.0907 39.0758 20.167 39.0769 20.246C39.0769 20.425 39.2229 20.578 39.3679 20.578ZM39.3189 20.45H39.2459V20.093H39.3919C39.4159 20.093 39.4649 20.093 39.4649 20.118C39.5139 20.144 39.5139 20.169 39.5139 20.195C39.5139 20.245 39.4889 20.271 39.4409 20.271L39.5139 20.451H39.4159L39.3679 20.297H39.2949V20.45V20.22H39.3919C39.4159 20.22 39.4159 20.195 39.4159 20.17C39.4159 20.144 39.4159 20.144 39.3919 20.118H39.2949V20.45H39.3189Z" fill="#FCB131"/>
<path fill-rule="evenodd" clip-rule="evenodd" d="M24.4831 11.8699C24.4341 11.4099 24.3611 10.9759 24.2891 10.5159H16.9791C17.0558 10.0647 17.1695 9.62052 17.3191 9.18793H23.9241C23.7777 8.73128 23.6159 8.27969 23.4391 7.83393H17.8291C18.0241 7.37393 18.2671 6.91393 18.5091 6.47993H22.7351C22.4642 6.01843 22.164 5.57485 21.8361 5.15193H19.4321C19.7971 4.66693 20.2091 4.20693 20.6461 3.79793C18.5101 1.83193 15.6931 0.554932 12.6101 0.554932C6.02911 0.554932 0.662109 6.22493 0.662109 13.1979C0.662109 20.1699 6.03011 25.8399 12.6101 25.8399C15.6941 25.8399 18.5101 24.6139 20.6471 22.5699C21.0826 22.1637 21.4809 21.7192 21.8371 21.2419H19.4331C19.0931 20.8079 18.8261 20.3739 18.5351 19.8889H22.7601C23.0271 19.4539 23.2451 19.0199 23.4641 18.5349H17.8301C17.6348 18.1024 17.4646 17.659 17.3201 17.2069H23.9241C24.0701 16.7729 24.1671 16.3129 24.2641 15.8529C24.3371 15.4189 24.4341 14.9589 24.4591 14.4989C24.5071 14.0649 24.5321 13.6309 24.5321 13.1709C24.5514 12.7363 24.5346 12.3008 24.4821 11.8689L24.4831 11.8699Z" fill="#ED1B2E"/>
<path fill-rule="evenodd" clip-rule="evenodd" d="M39.0039 16.1341C39.0039 15.9041 39.1739 15.7251 39.3679 15.7251C39.5859 15.7251 39.7559 15.9041 39.7559 16.1341C39.7559 16.3381 39.5859 16.5421 39.3679 16.5421C39.1489 16.5681 39.0039 16.3641 39.0039 16.1341ZM39.3679 16.4401C39.5379 16.4401 39.6839 16.3131 39.6839 16.1341C39.6838 16.0931 39.6755 16.0524 39.6594 16.0147C39.6434 15.9769 39.62 15.9427 39.5905 15.9141C39.5611 15.8855 39.5262 15.8631 39.488 15.8481C39.4498 15.8332 39.4089 15.826 39.3679 15.8271C39.2889 15.8302 39.2143 15.8641 39.16 15.9214C39.1056 15.9788 39.0758 16.0551 39.0769 16.1341C39.0769 16.3131 39.2229 16.4401 39.3679 16.4401ZM39.3189 16.3131H39.2459V15.9551H39.4649C39.5139 15.9801 39.5139 16.0321 39.5139 16.0571C39.5139 16.0831 39.4889 16.1341 39.4409 16.1341L39.5139 16.2871H39.4159L39.3679 16.1591H39.2949V16.3131V16.1331H39.3439C39.3679 16.1331 39.3919 16.1331 39.3919 16.1081C39.4159 16.1081 39.4159 16.0831 39.4159 16.0581C39.4159 16.0581 39.4159 16.0321 39.3919 16.0321C39.3919 16.0061 39.3679 16.0321 39.3439 16.0321H39.2949V16.3131H39.3189Z" fill="white"/>
<path fill-rule="evenodd" clip-rule="evenodd" d="M16.567 16.849C16.178 16.951 15.887 17.027 15.596 17.027C14.989 17.027 14.6 16.619 14.6 15.877C14.6 15.725 14.624 15.571 14.649 15.393L14.722 14.882L14.794 14.473L15.353 10.923H16.591L16.445 11.715H17.223L17.028 13.017H16.251L15.911 15.137V15.367C15.911 15.648 16.033 15.75 16.348 15.75C16.494 15.75 16.616 15.725 16.737 15.7L16.567 16.849ZM20.573 16.824C20.113 16.952 19.699 17.028 19.263 17.028C17.853 17.028 17.053 16.237 17.053 14.704C17.053 12.89 18 11.588 19.311 11.588C20.355 11.588 21.035 12.328 21.035 13.478C21.035 13.861 20.986 14.244 20.889 14.755H18.315C18.291 14.832 18.291 14.883 18.291 14.934C18.291 15.547 18.68 15.854 19.432 15.854C19.918 15.854 20.331 15.751 20.768 15.521L20.573 16.824ZM19.796 13.708V13.452C19.796 13.018 19.578 12.788 19.189 12.788C18.777 12.788 18.485 13.12 18.364 13.733H19.796V13.708ZM6.66004 16.926H5.39704L6.12604 11.996L4.45004 16.926H3.57604L3.47904 12.022L2.67804 16.926H1.41504L2.43504 10.515H4.30504L4.35304 14.474L5.61604 10.514H7.68004L6.66004 16.926ZM9.79204 14.601C9.67104 14.576 9.62204 14.576 9.54904 14.576C8.79704 14.576 8.43204 14.882 8.43204 15.367C8.43204 15.699 8.62704 15.904 8.91804 15.904C9.50104 15.904 9.76804 15.367 9.79204 14.601ZM10.812 16.925H9.69504L9.71904 16.389C9.42804 16.798 9.03904 17.028 8.35904 17.028C7.75204 17.028 7.19404 16.44 7.19404 15.598C7.19404 15.368 7.24304 15.138 7.29104 14.933C7.48504 14.141 8.26204 13.631 9.42804 13.605C9.57404 13.605 9.79204 13.605 10.011 13.631C10.059 13.451 10.059 13.401 10.059 13.273C10.059 12.915 9.79204 12.813 9.18504 12.813C8.82104 12.813 8.40804 12.89 8.11704 12.992L7.92204 13.043L7.85004 13.069L8.04404 11.894C8.65104 11.689 9.06404 11.613 9.54904 11.613C10.666 11.613 11.273 12.149 11.273 13.145C11.273 13.401 11.298 13.605 11.201 14.167L10.909 16.032L10.861 16.363L10.836 16.619L10.812 16.798V16.925ZM26.79 11.766C27.154 11.766 27.494 11.868 27.955 12.123L28.174 10.744C28.052 10.668 28.004 10.668 27.834 10.617L27.324 10.463C27.1265 10.408 26.922 10.3824 26.717 10.387C26.086 10.387 25.697 10.412 25.308 10.642C25.114 10.795 24.823 11 24.556 11.332L24.41 11.281L23.099 12.251L23.172 11.715H21.812L21.01 16.925H22.322L22.807 14.115C22.807 14.115 23.002 13.733 23.075 13.605C23.317 13.273 23.535 13.273 23.803 13.273H23.9C23.8497 13.6026 23.8253 13.9356 23.827 14.269C23.827 15.955 24.726 17.027 26.134 17.027C26.474 17.027 26.79 16.977 27.275 16.849L27.494 15.367C27.081 15.597 26.717 15.725 26.401 15.725C25.648 15.725 25.187 15.112 25.187 14.167C25.163 12.762 25.843 11.766 26.79 11.766ZM37.765 10.515L37.474 12.329C37.158 11.818 36.794 11.588 36.308 11.588C35.628 11.588 34.998 11.997 34.584 12.788V12.763L33.759 12.253L33.831 11.716H32.447L31.67 16.926H32.957L33.394 14.116C33.394 14.116 33.734 13.733 33.807 13.606C33.8752 13.5126 33.9624 13.4346 34.0629 13.3774C34.1634 13.3202 34.2749 13.2849 34.39 13.274C34.244 13.708 34.172 14.219 34.172 14.806C34.172 16.109 34.802 16.977 35.75 16.977C36.235 16.977 36.6 16.799 36.94 16.39L36.867 16.9H38.081L39.076 10.49H37.766L37.765 10.515ZM36.163 15.7C35.725 15.7 35.507 15.343 35.507 14.679C35.507 13.657 35.92 12.916 36.527 12.916C36.988 12.916 37.207 13.274 37.207 13.938C37.207 14.985 36.794 15.7 36.163 15.7ZM30.213 14.601C30.093 14.576 30.043 14.576 29.971 14.576C29.218 14.576 28.854 14.882 28.854 15.367C28.854 15.699 29.048 15.904 29.339 15.904C29.946 15.904 30.188 15.367 30.213 14.601ZM31.233 16.925H30.093L30.141 16.389C29.849 16.798 29.461 17.028 28.781 17.028C28.15 17.028 27.591 16.466 27.591 15.598C27.591 14.371 28.489 13.605 29.874 13.605C30.019 13.605 30.238 13.605 30.432 13.631C30.481 13.451 30.505 13.401 30.505 13.273C30.505 12.915 30.238 12.813 29.607 12.813C29.267 12.813 28.83 12.89 28.538 12.992L28.368 13.043L28.295 13.069L28.489 11.894C29.097 11.689 29.509 11.613 29.995 11.613C31.112 11.613 31.695 12.149 31.695 13.145C31.695 13.401 31.743 13.605 31.622 14.167L31.355 16.032L31.306 16.363L31.258 16.619L31.233 16.798V16.925ZM13.507 12.813C13.75 12.813 14.114 12.839 14.479 12.89L14.673 11.664C14.2866 11.6078 13.8973 11.5737 13.507 11.562C12.075 11.562 11.589 12.379 11.589 13.35C11.589 13.989 11.856 14.423 12.56 14.78C13.07 15.036 13.167 15.087 13.167 15.317C13.167 15.649 12.9 15.827 12.415 15.827C12.026 15.827 11.662 15.751 11.249 15.623L11.103 16.823L11.128 16.849L11.371 16.9C11.443 16.926 11.565 16.951 11.711 16.977C12.026 17.002 12.293 17.027 12.463 17.027C13.896 17.027 14.503 16.44 14.503 15.291C14.503 14.576 14.163 14.141 13.532 13.835C12.973 13.58 12.925 13.529 12.925 13.299C12.876 13.043 13.119 12.813 13.507 12.813Z" fill="#003473"/>
<path fill-rule="evenodd" clip-rule="evenodd" d="M28.5379 10.3099L28.3199 11.6899C27.8579 11.4599 27.5429 11.3319 27.1539 11.3319C26.1829 11.3319 25.5029 12.3279 25.5029 13.7329C25.5029 14.7029 25.9639 15.2909 26.7169 15.2909C27.0329 15.2909 27.3969 15.1889 27.8099 14.9589L27.5909 16.4149C27.1049 16.5429 26.8139 16.6189 26.4499 16.6189C25.0409 16.6189 24.1919 15.5469 24.1919 13.8349C24.1919 11.5619 25.3819 9.95288 27.1049 9.95288C27.3239 9.95288 27.5429 9.97888 27.7119 10.0299L28.2219 10.1579C28.3679 10.2339 28.4169 10.2589 28.5379 10.3099ZM24.3609 11.2549H24.2399C23.8029 11.2549 23.5599 11.4589 23.1719 12.0979L23.2929 11.3059H22.1279L21.3259 16.5159H22.6369C23.1229 13.3239 23.2439 12.7869 23.8519 12.7869H23.9239C24.022 12.2661 24.1852 11.7598 24.4099 11.2799L24.3609 11.2549ZM16.9069 16.4399C16.5669 16.5679 16.2759 16.6199 15.9839 16.6199C15.3289 16.6199 14.9639 16.2359 14.9639 15.4699C14.9639 15.3419 14.9889 15.1629 15.0129 15.0099L15.0859 14.4999L15.1589 14.0899L15.6929 10.5149H16.9799L16.8339 11.3059H17.4899L17.3199 12.5839H16.6399L16.2999 14.7539C16.2759 14.8309 16.2759 14.9079 16.2759 14.9589C16.2759 15.2139 16.3969 15.3159 16.7129 15.3159C16.8579 15.3159 16.9799 15.3159 17.0529 15.2659L16.9069 16.4399ZM11.9299 12.9669C11.9299 13.6049 12.2199 14.0649 12.8999 14.4219C13.4349 14.6779 13.5069 14.7799 13.5069 14.9839C13.5069 15.3159 13.2889 15.4699 12.7549 15.4699C12.3659 15.4699 12.0019 15.3929 11.5889 15.2649L11.3949 16.4649L11.4679 16.4909L11.6859 16.5419C11.7589 16.5679 11.8799 16.5929 12.0259 16.5929C12.3179 16.6449 12.5599 16.6449 12.7299 16.6449C14.0899 16.6449 14.7219 16.1079 14.7219 14.9079C14.7219 14.1929 14.4539 13.7839 13.8229 13.4519C13.2649 13.1959 13.2159 13.1199 13.2159 12.8899C13.2159 12.6089 13.4349 12.4809 13.8469 12.4809C14.0899 12.4809 14.4539 12.5069 14.7699 12.5579L14.9639 11.3579C14.6239 11.2809 14.1139 11.2549 13.8239 11.2549C12.4139 11.2049 11.9039 11.9959 11.9289 12.9669H11.9299ZM38.4199 16.5169H37.2069L37.2799 16.0069C36.9399 16.3889 36.5509 16.5679 36.0899 16.5679C35.1429 16.5679 34.5109 15.7249 34.5109 14.4219C34.5109 12.6859 35.4829 11.2039 36.6239 11.2039C37.1339 11.2039 37.5219 11.4339 37.8619 11.9189L38.1539 10.1059H39.4409L38.4209 16.5159L38.4199 16.5169ZM36.5269 15.2909C37.1339 15.2909 37.5469 14.5509 37.5469 13.5279C37.5469 12.8639 37.3279 12.5069 36.8669 12.5069C36.2839 12.5069 35.8469 13.2219 35.8469 14.2439C35.8469 14.9589 36.0649 15.2909 36.5269 15.2909ZM20.8649 16.4159C20.4341 16.5583 19.9825 16.6273 19.5289 16.6199C18.0969 16.6199 17.3439 15.8279 17.3439 14.2699C17.3439 12.4829 18.2909 11.1539 19.6019 11.1539C20.6709 11.1539 21.3499 11.8949 21.3499 13.0439C21.3499 13.4269 21.3019 13.8109 21.1799 14.3469H18.6069C18.5819 14.4239 18.5819 14.4749 18.5819 14.5259C18.5819 15.1389 18.9709 15.4459 19.7239 15.4459C20.2089 15.4459 20.6219 15.3689 21.0589 15.1129L20.8649 16.4159ZM20.1359 13.2999V13.0439C20.1359 12.6099 19.9179 12.3799 19.5289 12.3799C19.1169 12.3799 18.8249 12.7119 18.7039 13.3249H20.1359V13.2999ZM6.99988 16.5169H5.71288L6.46588 11.5869L4.78988 16.5169H3.89188L3.79488 11.6389L3.01788 16.5169H1.82788L2.82288 10.1059H4.69288L4.74188 14.0899L5.97988 10.1059H7.99488L6.99988 16.5169ZM10.2049 14.1929C10.0839 14.1929 10.0109 14.1679 9.91388 14.1679C9.18488 14.1679 8.82088 14.4479 8.82088 14.9599C8.82088 15.2919 8.99088 15.4699 9.28188 15.4699C9.79188 15.4959 10.1809 14.9849 10.2049 14.1929ZM11.1519 16.5179H10.0839L10.1079 15.9809C9.76788 16.4149 9.35488 16.6199 8.74788 16.6199C8.04388 16.6199 7.58288 16.0579 7.58288 15.2149C7.58288 13.9379 8.40788 13.1969 9.84088 13.1969C9.98688 13.1969 10.1809 13.2229 10.3749 13.2479C10.4239 13.0699 10.4239 13.0179 10.4239 12.9159C10.4239 12.5589 10.2049 12.4309 9.59788 12.4309C9.23388 12.4309 8.82088 12.4819 8.52988 12.5589L8.33488 12.6349L8.21388 12.6609L8.40788 11.4859C8.90754 11.3128 9.43309 11.2262 9.96188 11.2299C11.0789 11.2299 11.6859 11.7409 11.6859 12.7369C11.6859 12.9929 11.6619 13.1969 11.5889 13.7849L11.2979 15.6239L11.2489 15.9559L11.2249 16.2109L11.1519 16.3899V16.5179ZM30.6259 14.1929C30.4809 14.1929 30.4319 14.1679 30.3349 14.1679C29.5819 14.1679 29.2179 14.4479 29.2179 14.9599C29.2179 15.2919 29.4119 15.4699 29.7029 15.4699C30.2129 15.4959 30.6019 14.9849 30.6259 14.1929ZM31.5729 16.5179H30.5049L30.5289 15.9809C30.1889 16.4149 29.7759 16.6199 29.1689 16.6199C28.4649 16.6199 28.0039 16.0579 28.0039 15.2149C28.0039 13.9379 28.8289 13.1969 30.2619 13.1969C30.4079 13.1969 30.6019 13.2229 30.7719 13.2479C30.8209 13.0699 30.8449 13.0179 30.8449 12.9159C30.8449 12.5589 30.6259 12.4309 30.0189 12.4309C29.6512 12.4314 29.2847 12.4744 28.9269 12.5589L28.7569 12.6349L28.6349 12.6609L28.8289 11.4859C29.3285 11.3127 29.8541 11.2262 30.3829 11.2299C31.4999 11.2299 32.0829 11.7409 32.0829 12.7369C32.0829 12.9929 32.0829 13.1969 31.9859 13.7849L31.7189 15.6239L31.6699 15.9559L31.6219 16.2109L31.5979 16.4149V16.5179H31.5729ZM35.0459 11.2549H34.9239C34.4869 11.2549 34.2439 11.4589 33.8559 12.0979L33.9769 11.3059H32.8119L32.0349 16.5159H33.3219C33.8069 13.3239 33.9289 12.7869 34.5359 12.7869H34.6079C34.706 12.2661 34.8692 11.7598 35.0939 11.2799L35.0459 11.2549Z" fill="white"/>
</g>
<defs>
<clipPath id="clip0_84_647">
<rect width="41" height="26" fill="white"/>
</clipPath>
</defs>
</svg>
