<svg width="16" height="16" viewBox="0 0 16 16" fill="none" xmlns="http://www.w3.org/2000/svg">
<path d="M8 0C3.584 0 0 3.584 0 8C0 12.416 3.584 16 8 16C12.416 16 16 12.416 16 8C16 3.584 12.416 0 8 0ZM8 14.4C4.472 14.4 1.6 11.528 1.6 8C1.6 4.472 4.472 1.6 8 1.6C11.528 1.6 14.4 4.472 14.4 8C14.4 11.528 11.528 14.4 8 14.4ZM8.248 7.312C6.832 6.952 6.376 6.56 6.376 5.976C6.376 5.304 7.008 4.832 8.056 4.832C9.16 4.832 9.576 5.36 9.608 6.144H10.976C10.936 5.072 10.28 4.088 8.984 3.768V2.4H7.12V3.752C5.912 4.008 4.944 4.792 4.944 6C4.944 7.432 6.136 8.152 7.872 8.568C9.432 8.936 9.744 9.488 9.744 10.064C9.744 10.488 9.432 11.176 8.064 11.176C6.784 11.176 6.28 10.6 6.208 9.864H4.832C4.912 11.224 5.92 11.992 7.12 12.24V13.6H8.992V12.264C10.208 12.032 11.168 11.336 11.176 10.048C11.168 8.288 9.656 7.68 8.248 7.312Z" fill="white"/>
</svg>
