<svg width="16" height="16" viewBox="0 0 16 16" fill="none" xmlns="http://www.w3.org/2000/svg">
<path d="M4.8 12.8C3.92 12.8 3.208 13.52 3.208 14.4C3.208 15.28 3.92 16 4.8 16C5.68 16 6.4 15.28 6.4 14.4C6.4 13.52 5.68 12.8 4.8 12.8ZM12.8 12.8C11.92 12.8 11.208 13.52 11.208 14.4C11.208 15.28 11.92 16 12.8 16C13.68 16 14.4 15.28 14.4 14.4C14.4 13.52 13.68 12.8 12.8 12.8ZM5.68 8.8H11.64C12.24 8.8 12.768 8.472 13.04 7.976L16 2.368L14.6 1.6L11.64 7.2H6.024L2.616 0H0V1.6H1.6L4.48 7.672L3.4 9.624C2.816 10.696 3.584 12 4.8 12H14.4V10.4H4.8L5.68 8.8ZM8.8 0L12 3.2L8.8 6.4L7.672 5.272L8.936 4H5.6V2.4H8.936L7.664 1.128L8.8 0Z" fill="white"/>
</svg>
