<svg width="19" height="14" viewBox="0 0 19 14" fill="none" xmlns="http://www.w3.org/2000/svg">
<path d="M17.2727 0.411765C16.3141 0.123529 15.2605 0 14.25 0C12.5659 0 10.7523 0.329412 9.5 1.23529C8.24773 0.329412 6.43409 0 4.75 0C3.06591 0 1.25227 0.329412 0 1.23529V13.3C0 13.5059 0.215909 13.7118 0.431818 13.7118C0.518182 13.7118 0.561364 13.6706 0.647727 13.6706C1.81364 13.1353 3.49773 12.7647 4.75 12.7647C6.43409 12.7647 8.24773 13.0941 9.5 14C10.6659 13.3 12.7818 12.7647 14.25 12.7647C15.675 12.7647 17.1432 13.0118 18.3523 13.6294C18.4386 13.6706 18.4818 13.6706 18.5682 13.6706C18.7841 13.6706 19 13.4647 19 13.2588V1.23529C18.4818 0.864706 17.9205 0.617647 17.2727 0.411765ZM17.2727 11.5294C16.3227 11.2412 15.2864 11.1176 14.25 11.1176C12.7818 11.1176 10.6659 11.6529 9.5 12.3529V2.88235C10.6659 2.18235 12.7818 1.64706 14.25 1.64706C15.2864 1.64706 16.3227 1.77059 17.2727 2.05882V11.5294Z" fill="white"/>
<path d="M14.2499 4.94117C15.0099 4.94117 15.744 5.01529 16.409 5.15529V3.90353C15.7267 3.78 14.9926 3.70588 14.2499 3.70588C12.7817 3.70588 11.4517 3.9447 10.3635 4.38941V5.75647C11.3394 5.22941 12.6953 4.94117 14.2499 4.94117ZM10.3635 6.58V7.94706C11.3394 7.42 12.6953 7.13176 14.2499 7.13176C15.0099 7.13176 15.744 7.20588 16.409 7.34588V6.09411C15.7267 5.97058 14.9926 5.89647 14.2499 5.89647C12.7817 5.89647 11.4517 6.14353 10.3635 6.58ZM14.2499 8.09529C12.7817 8.09529 11.4517 8.33411 10.3635 8.77882V10.1459C11.3394 9.61882 12.6953 9.33058 14.2499 9.33058C15.0099 9.33058 15.744 9.4047 16.409 9.5447V8.29294C15.7267 8.16117 14.9926 8.09529 14.2499 8.09529Z" fill="white"/>
</svg>
