<svg width="20" height="20" viewBox="0 0 20 20" fill="none" xmlns="http://www.w3.org/2000/svg">
<path d="M19.4507 16.7995L14.8624 12.2108C14.1787 13.2741 13.2739 14.1784 12.2107 14.8621L16.7994 19.4507C17.5319 20.1831 18.7197 20.1831 19.4507 19.4507C20.1833 18.7195 20.1833 17.5318 19.4507 16.7995Z" fill="black"/>
<path d="M15 7.49999C15 3.35823 11.6419 0 7.50006 0C3.35826 0 0 3.35823 0 7.49999C0 11.6417 3.35826 14.9998 7.50006 14.9998C11.6419 14.9998 15 11.6417 15 7.49999ZM7.50006 13.1248C4.39822 13.1248 1.87507 10.6018 1.87507 7.50003C1.87507 4.39822 4.39822 1.87509 7.50006 1.87509C10.6018 1.87509 13.1252 4.39822 13.1252 7.50003C13.1252 10.6018 10.6018 13.1248 7.50006 13.1248Z" fill="black"/>
<path d="M3.125 7.49999H4.37485C4.37485 5.77691 5.77689 4.37502 7.49994 4.37502V3.12505C5.0879 3.12505 3.125 5.08794 3.125 7.49999Z" fill="black"/>
</svg>
