<svg width="20" height="22" viewBox="0 0 20 22" fill="none" xmlns="http://www.w3.org/2000/svg">
<path d="M10.0002 0.52381C8.68075 0.52381 4.66525 0.52381 2.44525 2.64733C1.12325 4.02705 0.50025 6.02067 0.50025 8.90476V10.4762C0.50025 13.3603 1.12325 15.3539 2.46075 16.7493C3.12675 17.3858 4.03475 17.8944 5.14475 18.2459L5.50025 18.358V21.1488C5.50025 21.4762 5.59075 21.4762 5.62075 21.4762C5.68225 21.4762 5.78075 21.4558 5.96775 21.2819C6.01275 21.2352 6.34275 20.8612 7.94775 18.9776L8.10975 18.7875L8.35225 18.8037C8.88975 18.8388 9.44425 18.8571 10.0002 18.8571C11.3197 18.8571 15.3352 18.8571 17.5553 16.7331C18.8768 15.3534 19.5002 13.3598 19.5002 10.4762V8.90476C19.5002 6.02067 18.8772 4.02705 17.5397 2.63162C15.3352 0.52381 11.3197 0.52381 10.0002 0.52381Z" fill="white"/>
<path d="M14.7257 13.0188C14.1702 12.5285 13.9137 12.3802 13.1467 11.8978C12.8272 11.6972 12.3403 11.5238 12.0848 11.5238C11.9102 11.5238 11.7013 11.6637 11.5732 11.7978C11.2452 12.1414 11.1377 12.5714 10.5627 12.5714C10.0002 12.5714 9.01775 11.9717 8.31275 11.1964C7.57275 10.4579 7.00025 9.42857 7.00025 8.83929C7.00025 8.23691 7.40325 8.11643 7.73125 7.77229C7.85925 7.63871 8.00025 7.41976 8.00025 7.23695C8.00025 6.96929 7.83475 6.46695 7.64325 6.13224C7.18275 5.32819 7.04175 5.05948 6.57325 4.47805C6.41475 4.2811 6.23425 4.191 6.04525 4.19048C5.72575 4.18995 5.30625 4.356 5.02225 4.57757C4.59525 4.91124 4.14875 5.36538 4.02925 5.9311C4.01325 6.0081 4.00375 6.08562 4.00075 6.16314C3.97775 6.75243 4.19875 7.35062 4.43725 7.85714C4.99875 9.05091 5.74175 10.2064 6.55025 11.2383C6.80875 11.5683 7.09025 11.8753 7.38175 12.1718C7.66475 12.4766 7.95775 12.7715 8.27275 13.0429C9.25775 13.8899 10.3608 14.6682 11.5002 15.2565C11.9792 15.5037 12.5433 15.731 13.1003 15.7143C13.1798 15.7117 13.2592 15.7022 13.3387 15.6839C13.8787 15.5592 14.3123 15.091 14.6308 14.6436C14.8423 14.3461 15.0007 13.9071 15.0002 13.5719C14.9998 13.3739 14.9137 13.1848 14.7257 13.0188ZM15.0002 10.4762C14.7242 10.4762 14.5002 10.2415 14.5002 9.95238V9.42857C14.5002 6.82943 12.4812 4.71429 10.0002 4.71429C9.72425 4.71429 9.50025 4.47962 9.50025 4.19048C9.50025 3.90133 9.72425 3.66667 10.0002 3.66667C13.0328 3.66667 15.5002 6.25167 15.5002 9.42857V9.95238C15.5002 10.2415 15.2762 10.4762 15.0002 10.4762ZM11.9292 9.42857C11.7072 9.42857 11.5043 9.27248 11.4458 9.03676C11.3088 8.48624 10.8988 8.05619 10.3752 7.91476C10.1077 7.84195 9.94725 7.55648 10.0162 7.27624C10.0852 6.99652 10.3572 6.82838 10.6257 6.90014C11.4997 7.13743 12.1847 7.85452 12.4132 8.77224C12.4827 9.05248 12.3228 9.33795 12.0557 9.41129C12.0133 9.42281 11.9707 9.42857 11.9292 9.42857Z" fill="#7E57C2"/>
<path d="M13.5002 9.95238C13.2242 9.95238 13.0002 9.71772 13.0002 9.42857C13.0002 7.75867 11.7533 6.38105 10.1613 6.29305C9.88525 6.27786 9.67375 6.03114 9.68825 5.74252C9.70275 5.45338 9.94225 5.23129 10.2137 5.247C12.3372 5.36433 14.0003 7.20133 14.0003 9.42857C14.0003 9.71772 13.7762 9.95238 13.5002 9.95238Z" fill="#7E57C2"/>
<path d="M10.0002 0C7.75025 0 4.24425 0.216857 2.10825 2.26076C0.59825 3.83586 0.000250036 6.04529 0.000250036 8.90476C0.000250036 9.14152 -0.000750036 9.40552 0.00124996 9.69048C-0.000750036 9.97491 0.000250036 10.2389 0.000250036 10.4757C0.000250036 13.3351 0.59825 15.5446 2.10825 17.1197C2.92125 17.8975 3.93525 18.4093 5.00025 18.7466V21.1488C5.00025 21.9848 5.52475 22 5.62075 22H5.62525C5.87225 21.999 6.08575 21.8722 6.29975 21.6731C6.38025 21.5982 7.30975 20.5129 8.32075 19.326C8.92275 19.3663 9.49475 19.381 9.99975 19.381C12.2498 19.381 15.7553 19.1636 17.8918 17.1197C19.4013 15.5451 19.9998 13.3351 19.9998 10.4757C19.9998 10.2389 20.0008 9.97491 19.9988 9.68995C20.0008 9.405 19.9998 9.14152 19.9998 8.90424C19.9998 6.04476 19.4018 3.83533 17.8918 2.26024C15.7558 0.216857 12.2502 0 10.0002 0ZM18.5002 10.2934V10.4757C18.5002 13.0455 17.9778 14.7966 16.8573 15.982C14.9163 17.8095 11.2188 17.8095 9.99975 17.8095C9.62875 17.8095 9.02675 17.809 8.31625 17.7571C8.11875 17.9897 6.00025 20.472 6.00025 20.472V17.401C4.94825 17.1364 3.90875 16.7027 3.14325 15.9825C2.02275 14.7966 1.50025 13.0455 1.50025 10.4757V10.2934C1.50025 10.1095 1.49975 9.911 1.50125 9.67895C1.49975 9.46943 1.49975 9.27143 1.50025 9.08705V8.90476C1.50025 6.33495 2.02275 4.58386 3.14325 3.39848C5.08375 1.5709 8.78175 1.5709 10.0002 1.5709C11.2188 1.5709 14.9163 1.5709 16.8568 3.39848C17.9778 4.58386 18.4998 6.33495 18.4998 8.90476V9.08705C18.4998 9.27091 18.5002 9.46943 18.4988 9.70148C18.5002 9.91152 18.5002 10.1095 18.5002 10.2934Z" fill="#7E57C2"/>
</svg>
