<svg width="46" height="31" viewBox="0 0 46 31" fill="none" xmlns="http://www.w3.org/2000/svg">
<g clip-path="url(#clip0_84_655)">
<path d="M44.946 30.77H0V0H45.7V30.77H44.946Z" fill="#005596"/>
<path fill-rule="evenodd" clip-rule="evenodd" d="M44.946 29.99H0.780029V0.780029H44.946V29.99Z" fill="white"/>
<path fill-rule="evenodd" clip-rule="evenodd" d="M16.7251 20.1321L19.6121 10.6641H22.1611L19.3001 20.1321H16.7251ZM15.5801 10.6901L13.2911 14.6961C12.6931 15.7361 12.3551 16.2831 12.1991 16.9331H12.1731C12.2251 16.1011 12.0951 15.0601 12.0951 14.4881L11.8351 10.6901H7.51709L7.46509 10.9501C8.58309 10.9501 9.23409 11.4971 9.41509 12.6411L10.2481 20.1581H12.9011L18.2591 10.7161H15.5801V10.6901ZM35.5041 20.1321L35.4261 18.7281H32.2261L31.5761 20.1321H28.7931L33.8391 10.6901H37.2471L38.1051 20.1321H35.5041ZM35.1921 14.5661C35.1661 13.8641 35.1401 12.9271 35.1921 12.3561H35.1661C35.0101 12.8231 34.3341 14.2281 34.0471 14.9301L33.0851 17.0101H35.3221L35.1921 14.5661ZM24.8401 20.3921C23.0451 20.3921 21.8231 19.8201 20.9901 19.2991L22.2131 17.4271C22.9931 17.8691 23.5911 18.3631 24.9701 18.3631C25.4121 18.3631 25.8541 18.2591 26.0881 17.8171C26.4521 17.1931 26.0101 16.8811 24.9961 16.3081L24.5021 15.9961C23.0191 14.9821 22.3691 14.0201 23.0721 12.3551C23.5131 11.2881 24.6841 10.4561 26.6351 10.4561C27.9611 10.4561 29.2351 11.0281 29.9641 11.6011L28.5591 13.2391C27.8571 12.6671 27.2591 12.3811 26.5821 12.3811C26.0361 12.3811 25.6201 12.5891 25.4901 12.8751C25.2301 13.3951 25.5681 13.7591 26.3481 14.2541L26.9471 14.6181C28.7411 15.7621 29.1831 16.9331 28.7151 18.0511C27.9611 19.9761 26.4261 20.3921 24.8401 20.3921ZM38.8601 11.9651H38.7551V11.2881H39.0151C39.1711 11.2881 39.2491 11.3401 39.2491 11.4701C39.2491 11.6001 39.1711 11.6531 39.0671 11.6531L39.2491 11.9391H39.1191L38.9371 11.6531H38.8331V11.9651H38.8601ZM38.9901 11.5751C39.0671 11.5751 39.1451 11.5751 39.1451 11.4711C39.1451 11.3921 39.0671 11.3671 38.9891 11.3671H38.8591V11.5741H38.9891L38.9901 11.5751ZM38.9901 12.2251C38.9111 12.2264 38.8327 12.2119 38.7595 12.1823C38.6863 12.1527 38.6198 12.1088 38.5639 12.053C38.508 11.9972 38.4639 11.9307 38.4342 11.8576C38.4045 11.7844 38.3899 11.706 38.3911 11.6271C38.3911 11.2621 38.6771 11.0281 38.9891 11.0281C39.3021 11.0281 39.5881 11.2621 39.5881 11.6271C39.5621 11.9651 39.3011 12.2251 38.9891 12.2251H38.9901ZM38.9901 11.1061C38.7301 11.1061 38.5211 11.3141 38.5211 11.6011C38.5211 11.8871 38.7031 12.0951 38.9891 12.0951C39.2491 12.0951 39.4581 11.8871 39.4581 11.6001C39.4321 11.3141 39.2491 11.1061 38.9891 11.1061H38.9901Z" fill="#005596"/>
<path fill-rule="evenodd" clip-rule="evenodd" d="M43.8529 23.071H1.95093V28.663H43.8529V23.071Z" fill="#F7AA0F"/>
<path fill-rule="evenodd" clip-rule="evenodd" d="M43.775 2.18506H1.87305V7.77706H43.775V2.18506ZM42.813 28.2731H42.709V27.5971H42.969C43.125 27.5971 43.203 27.6491 43.203 27.7791C43.203 27.9091 43.125 27.9611 43.021 27.9611L43.203 28.2471H43.073L42.891 27.9611H42.787V28.2731H42.813ZM42.943 27.8831C43.021 27.8831 43.099 27.8831 43.099 27.7791C43.099 27.7011 43.021 27.7011 42.943 27.7011H42.813V27.9091H42.943V27.8831ZM42.943 28.5331C42.8642 28.5343 42.7859 28.5196 42.7128 28.49C42.6397 28.4604 42.5733 28.4164 42.5175 28.3606C42.4617 28.3048 42.4177 28.2384 42.3881 28.1653C42.3585 28.0922 42.3438 28.0139 42.345 27.9351C42.345 27.5711 42.631 27.3371 42.943 27.3371C43.255 27.3371 43.541 27.5711 43.541 27.9351C43.5424 28.014 43.5279 28.0923 43.4983 28.1655C43.4687 28.2387 43.4247 28.3051 43.3689 28.3609C43.3131 28.4167 43.2466 28.4607 43.1735 28.4903C43.1003 28.5199 43.0219 28.5344 42.943 28.5331ZM42.943 27.4151C42.683 27.4151 42.475 27.6231 42.475 27.9091C42.475 28.1951 42.657 28.4031 42.943 28.4031C43.203 28.4031 43.411 28.1951 43.411 27.9091C43.411 27.6231 43.203 27.4151 42.943 27.4151Z" fill="#005596"/>
</g>
<defs>
<clipPath id="clip0_84_655">
<rect width="46" height="31" fill="white"/>
</clipPath>
</defs>
</svg>
